/* XPM */
static char *_82033205bac4cd2d129186e1fd86c5emQwg9Yg6HELXz9uL[] = {
/* columns rows colors chars-per-pixel */
"64 64 4 1 ",
"  c #164909",
". c #0A5811",
"X c #1D6C0A",
"o c #3C810B",
/* pixels */
"XX.           ..........XoX... .           . ...XX.oo..... .XXXo",
"XX.... .       .    .....XXX...    .. ..     . ..X....... ...XXX",
"..  . ..... .    .    ..XXXX... XXX..   ..   ..  .......   . XXX",
"........XXXX..  .. ... ....X...XXXXX.......        .  .      ..X",
"  ...X...XXX...     .. ....... XXX.. ..X..    .  .   ..XXX.  . .",
" ...XXXXXXXXX... .. .. ..... . .XXX  .XXX.   ..     ..XXX...    ",
" ..XXXXXXXXX...X...... ....    .XX.  .XXX..XX.... . XXXXXX..  ..",
" ...XXXXXXXX.XXXX.. ..  ..     .XX  .XXXXX.XXX... . XXXXX.   .XX",
" ....XXXXXXXXXXXX..    ... . .. .. ...XoooXoXXX . . XX...  . .XX",
"  ...X.XXXXXXoXXXX..    ........      .XoooooXX     XXX.     ...",
"  .....XXXXXoooXX....  .....X...   . ...XXooX.X..  .... . ..   .",
" ......XXXXooooXX..X.. ....XX.... .. ..XXXXXX.....       .....  ",
"XX.....XXXXoooooXXXXX....XXXXX..  ..  ...XXXX. ... .  .  .....  ",
"XXX...XXXXoooooXXXXXXX....XXXXX..    .....   .      ... ........",
"XX. ...XXXXooooooXXXXXX.XXXXXX....    ...       .. .............",
".X.......XXXXooooXoXXXX.XoooX..... .      XX.   ... ......X.... ",
" ..  ....XXXXooooooXXXXXooooXX....   .  . XX.  .... ......XX....",
"    ....XXXoooooooooooXXXooo...       .   ....  ........XXXXX...",
" .     ..XXXooooooooooXXoooX..   ... .. .      .....XX.XXXXXXX..",
"      ...XXXXXXXXXXoXXXXooXXX.. .XX ......   ......XXXXXXXoooXX.",
" ..  ....XXXXXXXXXXXXooooooX..  .XX ........ .......XXXXooooXXXX",
"..    .....XXXoXXXXXoooooXXX.. .XX  ...X.............XXoooooXXX.",
" .  ....X.XXXooooXXXoooooXXXX  .XX ....XX............XXXooXXX...",
" ..  ..XXXXXXooooXXoooooXXXX.   ..  .XXXXX..........XXXXoooXXX..",
" .  ..XXXXXXooooooXXooooXXX..  .XX  ..XXX..........XXXXXooXX....",
"  .....XXXXooooooXXooooooXX... .XX ..XXXXXXX...X.....X.XXXX.... ",
"........XXXXooXXXXXooooooXXX.  .  ...XooXXXXX.XXX......XXXXX.   ",
"....  ...X.XXXX.XXXooooXXX..     ...XXoooXXXXXXXX......XXX.   ..",
".X.   ..........XXoooXXXX...  .   ..XXoooooXoooXXX....XXX.   .XX",
"...   ... .....XXXXooXXX...   . ...XXoooooooXoooX......XX.  ..XX",
".X.    .   .....XXXoooXXX... .  ....XoooooooooooX.........   ..X",
".. .XX        ..XXXoXXX....    .....XXooooooooooo... .... ..    ",
"   .XX  .XX.  ..XXXXXX....   .  .....XoXooooooooo...  .   ..... ",
" . .... .XX.   .XXXXXXX..  .....  ...XXXXoooooooXX...      .....",
"..X..    ...  ..X.XXX...  ..XXX.  ...XXXXXooooXXX.... .  ....XXX",
"X.XX...   .  ......X.... .XXXXX.. ..XXXXXXXoooXXX....    .XX.XX.",
"X.XX..  .     .........  .XXXXX... ..XXXXXXXoXXX....   ....XXXXX",
"XXXX.X....    .......... ....  ..  ....XXXXXXXXXX.... ....XXXoXX",
"XXoXXX....  .    .....  ... .     .......X..XXXX..... ...XXXoooo",
"oXooXXX .          .     ..    ..  ..........XX.....  ..XXXooooo",
"XXoooX.    ..    .    .  ..   ...  ..  ...........   ..XXXXXoooo",
"oooooX.... ... .    ......X......       .   ......    ..XXXXoooo",
"XooooXXX.. ... ..  .....XXX.....      .      .         ....Xoooo",
"XoooooX..   .. .. ..XX.XXXXXX...    ..    .     ...  . ...XoooXo",
"XXoXXXXX      ...XXXXooXXXXXXX...  ..XX..  .  .XXXX..   .XXXooXX",
"X.XXXX..       ...oXoooXoXXX.....  .XXX.. ..  .XXXXX..  ..XXXoXX",
"XXX.X..  . .. ...ooooooooXX..     ..XXX.  .   ...XX... .......X.",
"X.......   .. ..oooooooooX.....  ..XXXX     .           ... ....",
".....     ....XooooooooooooX.... ....X. ... ...   .            .",
" .        ....XoooooooooooXXX....        ....XX  .....   .      ",
"    .XX  ....XooooooooooXXXXXXX..  ..   ..X.XXXXX.X..     .. .. ",
"    .XX   ....XoooooooooXXXXXX... ..   .X.XoXXoXXoXX. .      .. ",
" .. ...  ....XXXoooooooooX.XX...  .. ..XXXooooooXooXX....   ..XX",
"...   . ....XXXXooooooooo......     ..XXXooooooooooX......  .XoX",
"....   ......XXXXXoXXXooXX..   .XXX  .XooooooooooooooX..... XXXo",
".X.     ....XXXXXXXXoXXXX..    XXXX. ..XooooooooooooXXXX..  .XXo",
".XX..  ..X..XXoXooooooXXX...   XXXXX  ..XXoXoooooooooXX...  ..XX",
".X..   ..XXXXXoooooooooXoX...  XXXX..  .XXXXXXoooooooooX...   ..",
"...     .XXXXooooooooooooXX...  .....  ...XXoXXooooooooXX..   ..",
".      ...XXXooooooooooXoX....     .. ...XXXXXXXoooooooo....   .",
".X.    ...XXXXoooooooooXXXXX....         XXXoooooXoooXX..     .X",
".X. ......XXXXooXooooXoXXXXXX.....  . . XXXooooXXXXXXXX...  ...X",
".X.  ......X.XXXXXX.XXXX..X..    .     .XXXXoo.XXXX.....   ...XX",
" X     . ......X. ...    ....       .   .XXXXX........ . .   .XX"
};
