/* XPM */
static char *_662cc5c0b574e0da0e3079c7a15e9c6bDgTRtZRWH6j4pPe[] = {
/* columns rows colors chars-per-pixel */
"64 63 28 1 ",
"  c None",
". c #270D0E",
"X c #38191C",
"o c #2E231F",
"O c #382D17",
"+ c #5E1D00",
"@ c #6F0E37",
"# c #4F2429",
"$ c #4F2728",
"% c #564E49",
"& c #794349",
"* c #8D5234",
"= c #82494A",
"- c #B97455",
"; c #B97179",
": c #DF6B5E",
"> c #CC7268",
", c #F6986C",
"< c #DF4A89",
"1 c #A89286",
"2 c #FFB694",
"3 c #FFDF93",
"4 c #DDC4B8",
"5 c #FFCBB3",
"6 c #DFCADB",
"7 c #FFE4C9",
"8 c #FAEBDC",
"9 c white",
/* pixels */
"                                                                ",
"                                                                ",
"                                                                ",
"                                                                ",
"                                                                ",
"                                                                ",
"                                                                ",
"                                                                ",
"                                        3                       ",
"                                                                ",
"                                                                ",
"                                                                ",
"                                                                ",
"                                                                ",
"                                                                ",
"                          ......###                             ",
"                        ..&&##.##&&###                          ",
"                       .&&##&&#&&##&&&#                         ",
"                      .&&##&&&&#&&&##&&#                        ",
"                     .&&##&&&&&#&&&&&#&&#                       ",
"                    .;&&##&&&&&&#&&&&&#&&#                      ",
"        3           .;&##&&&&&&&##&&&;;#&&#                     ",
"        3           .&###&&;&&;&##&;;;;;#&;#                    ",
"        3          .;&###&;;&;;####;;;;;#&;#                    ",
"      33333        .;&#X&&;&&;###.#&;;;;;#&;#                   ",
"        3          .;##XX;;&#;##.,.#&;;;;#&;#                   ",
"        3          .&##X.;&#=##.,2.##&&&&.#&#                   ",
"        3          .##XX.;&#&#.,22,.#&&&&.###                   ",
"                   .##XX.&&.&#.,222,.#&&.,.#.      3            ",
"                   .#XX..&&.&.,2oooo,.#.oo.#.      3            ",
"                   .#X.*.&&#.#,oo6@@2,.,6@..       3            ",
"                   .#.*5.&&#&#,*699<22229<..     33333          ",
"                   .#.5-.&#&&#,*99<<22229<+        3            ",
"                   .#.*5.&#&&&#2699<777777+        3            ",
"                  .&#..*.&.&&&#,7777777772+        3            ",
"                  .&&.#..&.#&&&#57:7777772+                     ",
"                  .#&.OO.&&.##&.277::7772+                      ",
"                  .#&O88.###.#..,557772++.                      ",
"                  .#&O882.....%>>>>%+++.#.                      ",
"                   .#&O222222%4%%%%1%+X##.                      ",
"       3           .###O22222O4499991++###.                     ",
"                   .###.OO222O4499994+2++##..                   ",
"                . .###.## OOO44449944O288+X.                    ",
"                 .####.##   %%%%%%%%%O228+.                     ",
"                  .... .#   O>22222>>O+++                       ",
"                       .#   %%%%%%%%%O                          ",
"                            %44999444O                          ",
"                            %%%%%%%%%O                          ",
"                            O>22O O>>O                          ",
"                             O22O O>>O                          ",
"                             O>O O>>O                           ",
"                             O>O O>O                            ",
"                             O>O OOO                            ",
"                             OOO                                ",
"                                                                ",
"                                                                ",
"                                                                ",
"                                                                ",
"                                                                ",
"                                                                ",
"                                                                ",
"                                                                ",
"                                                                "
};
