/* XPM */
static char *f16104f496c641ef9110e6b6c4abf1c5XR06gPuFlAsM3l9u[] = {
/* columns rows colors chars-per-pixel */
"64 64 11 1 ",
"  c None",
". c #246539",
"X c #307546",
"o c #822121",
"O c #862222",
"+ c #912424",
"@ c #962525",
"# c #9A2E2E",
"$ c #AC3232",
"% c #BD4048",
"& c #D95763",
/* pixels */
"                                                                ",
"                                                                ",
"                                                                ",
"                                                                ",
"                                                                ",
"                                                                ",
"                                                                ",
"                                                                ",
"                                                                ",
"                                   OO                           ",
"                                  OO&%                          ",
"                          O#OO   #O&###                         ",
"                         O$&&&OO#O###OOO#                       ",
"                       #O$&$$$$$O###O###O#                      ",
"                     OOOO&$$#####O#####&#O#                     ",
"                    O$&O$$$#######OOO###&#O                     ",
"                    O&$O$$###O@OOO#$#O###&#O                    ",
"                    O&$O@$#OO$$$O$$$$####&#O                    ",
"                    O&$$O@#O@#$$++$$$O###&O#                    ",
"                    O&$$$O#O$@o+oo+$$O###&O                     ",
"                    O&$$$@O#$$@o+o+$#O##&#O                     ",
"                    O#&$$$O$$$$@o+@#$O#####                     ",
"                   #$O$$$$O$$$$$$O#$O@####                      ",
"                   #%O$$$$O$$$$$$O$@O#####O#                    ",
"                   #%O@$$#@#$$$$@#OOOOOOO@++#                   ",
"                   #%$O@$##O#$$$@#O@$$&&&&$$+#                  ",
"                   #&$$O@##O##$$O$OO$$$$$@$$++#                 ",
"                    #&$$OO#OO#O#@OO#O@@@oo+++ o                 ",
"                    #&####OOOO#O####$#####oo                    ",
"                     #&#####O@O########ooo#                     ",
"                      #&#####O#######oo###                      ",
"                          ##O#######o#                          ",
"                            #O#####o                            ",
"                              OO##XX                            ",
"                              XXOoX                             ",
"                              XXXXX                             ",
"                              XXXX                              ",
"                               XX                               ",
"                     XXXXXX    XX                               ",
"                    X..XXXXX   XXX                              ",
"                     ........  XX                               ",
"                      .....  X XX                               ",
"                        ..    XXX                               ",
"                               XX     XXXXX                     ",
"                               XX    XXXXXXXXX                  ",
"                               XX   XX.........                 ",
"                              XXX XX.........                   ",
"                               XXX    ......                    ",
"                               XX      ....                     ",
"                               XX                               ",
"                               XX                               ",
"                               XXX                              ",
"                               XX                               ",
"                              XXX                               ",
"                               XX                               ",
"                               XX                               ",
"                               XX                               ",
"                               XX                               ",
"                              XXX                               ",
"                              XX                                ",
"                             XXX                                ",
"                                                                ",
"                                                                ",
"                                                                "
};
